<svg width="471" height="187" viewBox="0 0 471 187" fill="none" xmlns="http://www.w3.org/2000/svg">
<g filter="url(#filter0_d_986_723)">
<rect x="2" y="4" width="85" height="85" rx="20" fill="white"/>
</g>
<path d="M26.2857 21.625C22.2672 21.625 19 24.8762 19 28.875V65.125C19 69.1238 22.2672 72.375 26.2857 72.375H62.7143C66.7328 72.375 70 69.1238 70 65.125V28.875C70 24.8762 66.7328 21.625 62.7143 21.625H26.2857ZM40.8571 47H46.3214C48.3364 47 49.9643 45.3801 49.9643 43.375C49.9643 41.3699 48.3364 39.75 46.3214 39.75H40.8571V47ZM46.3214 54.25H40.8571V57.875C40.8571 59.8801 39.2292 61.5 37.2143 61.5C35.1993 61.5 33.5714 59.8801 33.5714 57.875V50.625V37.0312C33.5714 34.5277 35.6092 32.5 38.125 32.5H46.3214C52.3549 32.5 57.25 37.3711 57.25 43.375C57.25 49.3789 52.3549 54.25 46.3214 54.25Z" fill="#6741D9"/>
<g filter="url(#filter1_d_986_723)">
<rect x="60" y="32" width="85" height="85" rx="20" fill="white"/>
</g>
<path d="M74.025 51.375C71.2508 51.375 69 53.6426 69 56.4375V83.4375C69 86.2324 71.2508 88.5 74.025 88.5H75.8152C76.6317 82.773 81.5102 78.375 87.425 78.375C93.3398 78.375 98.2183 82.773 99.0348 88.5H120.087H120.925H132.65C134.503 88.5 136 86.9918 136 85.125C136 83.2582 134.503 81.75 132.65 81.75H125.95V56.4375C125.95 53.6426 123.699 51.375 120.925 51.375H74.025ZM77.375 58.125C78.2962 58.125 79.05 58.8844 79.05 59.8125V73.65C77.8566 74.2723 76.7259 75.0105 75.7 75.8648V59.8125C75.7 58.8844 76.4537 58.125 77.375 58.125ZM87.425 71.625C86.8597 71.625 86.3048 71.6461 85.75 71.6988V59.8125C85.75 58.8844 86.5037 58.125 87.425 58.125C88.3462 58.125 89.1 58.8844 89.1 59.8125V71.6988C88.5452 71.6461 87.9903 71.625 87.425 71.625ZM95.8 73.65V59.8125C95.8 58.8844 96.5537 58.125 97.475 58.125C98.3962 58.125 99.15 58.8844 99.15 59.8125V75.8648C98.1241 75.0105 96.9934 74.2617 95.8 73.65ZM107.525 58.125C108.446 58.125 109.2 58.8844 109.2 59.8125V80.0625C109.2 80.9906 108.446 81.75 107.525 81.75C106.604 81.75 105.85 80.9906 105.85 80.0625V59.8125C105.85 58.8844 106.604 58.125 107.525 58.125ZM119.25 59.8125V80.0625C119.25 80.9906 118.496 81.75 117.575 81.75C116.654 81.75 115.9 80.9906 115.9 80.0625V59.8125C115.9 58.8844 116.654 58.125 117.575 58.125C118.496 58.125 119.25 58.8844 119.25 59.8125ZM87.425 98.625C89.6462 98.625 91.7764 97.7361 93.347 96.1537C94.9176 94.5714 95.8 92.4253 95.8 90.1875C95.8 87.9497 94.9176 85.8036 93.347 84.2213C91.7764 82.6389 89.6462 81.75 87.425 81.75C85.2038 81.75 83.0736 82.6389 81.503 84.2213C79.9324 85.8036 79.05 87.9497 79.05 90.1875C79.05 92.4253 79.9324 94.5714 81.503 96.1537C83.0736 97.7361 85.2038 98.625 87.425 98.625ZM87.425 86.8125C88.3135 86.8125 89.1656 87.1681 89.7938 87.801C90.4221 88.434 90.775 89.2924 90.775 90.1875C90.775 91.0826 90.4221 91.941 89.7938 92.574C89.1656 93.2069 88.3135 93.5625 87.425 93.5625C86.5365 93.5625 85.6844 93.2069 85.0562 92.574C84.4279 91.941 84.075 91.0826 84.075 90.1875C84.075 89.2924 84.4279 88.434 85.0562 87.801C85.6844 87.1681 86.5365 86.8125 87.425 86.8125Z" fill="#6741D9"/>
<g filter="url(#filter2_d_986_723)">
<rect x="380" y="4" width="85" height="85" rx="20" fill="white"/>
</g>
<g clip-path="url(#clip0_986_723)">
<path d="M391 69.6094V38.0631C391 35.4533 392.565 33.1125 394.957 32.1463L421.329 21.4781C422.077 21.1693 422.913 21.1693 423.671 21.4781L450.043 32.1463C452.435 33.1125 454 35.4633 454 38.0631V69.6094C454 70.9342 452.947 72 451.638 72H446.913C445.603 72 444.55 70.9342 444.55 69.6094V43.3125C444.55 41.5494 443.142 40.125 441.4 40.125H403.6C401.858 40.125 400.45 41.5494 400.45 43.3125V69.6094C400.45 70.9342 399.397 72 398.088 72H393.363C392.053 72 391 70.9342 391 69.6094ZM439.038 72H405.963C404.653 72 403.6 70.9342 403.6 69.6094V64.0312H441.4V69.6094C441.4 70.9342 440.347 72 439.038 72ZM403.6 60.8438V54.4688H441.4V60.8438H403.6ZM403.6 51.2812V43.3125H441.4V51.2812H403.6Z" fill="#6741D9"/>
</g>
<g filter="url(#filter3_d_986_723)">
<rect x="322" y="32" width="85" height="85" rx="20" fill="white"/>
</g>
<path d="M332 57.75C332 54.1648 334.915 51.25 338.5 51.25H377.5C381.085 51.25 384 54.1648 384 57.75V64.3617C380.161 64.9102 376.952 67.368 375.347 70.75H368.562V77.25H374.25V78.1234C372.31 79.2508 371 81.343 371 83.75H368.562V90.25H371V96.75H338.5C334.915 96.75 332 93.8352 332 90.25V57.75ZM353.125 57.75V64.25H362.062V57.75H353.125ZM377.5 57.75H368.562V64.25H377.5V57.75ZM353.125 70.75V77.25H362.062V70.75H353.125ZM353.125 83.75V90.25H362.062V83.75H353.125ZM385.625 72.375C383.827 72.375 382.375 73.8273 382.375 75.625V80.5H388.875V75.625C388.875 73.8273 387.423 72.375 385.625 72.375ZM377.5 75.625C377.5 71.1359 381.136 67.5 385.625 67.5C390.114 67.5 393.75 71.1359 393.75 75.625V80.5C395.548 80.5 397 81.9523 397 83.75V96.75C397 98.5477 395.548 100 393.75 100H377.5C375.702 100 374.25 98.5477 374.25 96.75V83.75C374.25 81.9523 375.702 80.5 377.5 80.5V75.625Z" fill="#6741D9"/>
<g filter="url(#filter4_d_986_723)">
<rect x="118" y="59" width="85" height="85" rx="20" fill="white"/>
</g>
<g clip-path="url(#clip1_986_723)">
<path d="M136.75 76C134.128 76 132 78.1416 132 80.7812V122.219C132 124.858 134.128 127 136.75 127H146.25V119.031C146.25 116.392 148.378 114.25 151 114.25C153.622 114.25 155.75 116.392 155.75 119.031V127H164.518C163.983 126.064 163.667 124.978 163.667 123.812V111.062C163.667 108.702 164.943 106.64 166.833 105.544V103.094C166.833 100.056 168.041 97.2965 170 95.2844V80.7812C170 78.1416 167.872 76 165.25 76H136.75ZM138.333 99.9062C138.333 99.0297 139.046 98.3125 139.917 98.3125H143.083C143.954 98.3125 144.667 99.0297 144.667 99.9062V103.094C144.667 103.97 143.954 104.688 143.083 104.688H139.917C139.046 104.688 138.333 103.97 138.333 103.094V99.9062ZM149.417 98.3125H152.583C153.454 98.3125 154.167 99.0297 154.167 99.9062V103.094C154.167 103.97 153.454 104.688 152.583 104.688H149.417C148.546 104.688 147.833 103.97 147.833 103.094V99.9062C147.833 99.0297 148.546 98.3125 149.417 98.3125ZM157.333 99.9062C157.333 99.0297 158.046 98.3125 158.917 98.3125H162.083C162.954 98.3125 163.667 99.0297 163.667 99.9062V103.094C163.667 103.97 162.954 104.688 162.083 104.688H158.917C158.046 104.688 157.333 103.97 157.333 103.094V99.9062ZM139.917 85.5625H143.083C143.954 85.5625 144.667 86.2797 144.667 87.1562V90.3438C144.667 91.2203 143.954 91.9375 143.083 91.9375H139.917C139.046 91.9375 138.333 91.2203 138.333 90.3438V87.1562C138.333 86.2797 139.046 85.5625 139.917 85.5625ZM147.833 87.1562C147.833 86.2797 148.546 85.5625 149.417 85.5625H152.583C153.454 85.5625 154.167 86.2797 154.167 87.1562V90.3438C154.167 91.2203 153.454 91.9375 152.583 91.9375H149.417C148.546 91.9375 147.833 91.2203 147.833 90.3438V87.1562ZM158.917 85.5625H162.083C162.954 85.5625 163.667 86.2797 163.667 87.1562V90.3438C163.667 91.2203 162.954 91.9375 162.083 91.9375H158.917C158.046 91.9375 157.333 91.2203 157.333 90.3438V87.1562C157.333 86.2797 158.046 85.5625 158.917 85.5625ZM177.917 99.9062C179.668 99.9062 181.083 101.331 181.083 103.094V107.875H174.75V103.094C174.75 101.331 176.165 99.9062 177.917 99.9062ZM170 103.094V107.875C168.248 107.875 166.833 109.299 166.833 111.062V123.812C166.833 125.576 168.248 127 170 127H185.833C187.585 127 189 125.576 189 123.812V111.062C189 109.299 187.585 107.875 185.833 107.875V103.094C185.833 98.691 182.291 95.125 177.917 95.125C173.543 95.125 170 98.691 170 103.094Z" fill="#6741D9"/>
</g>
<g filter="url(#filter5_d_986_723)">
<rect x="264" y="59" width="85" height="85" rx="20" fill="white"/>
</g>
<g clip-path="url(#clip2_986_723)">
<path d="M334.98 101.45C334.98 103.243 333.496 104.648 331.813 104.648H328.647L328.716 120.605C328.716 120.874 328.696 121.143 328.666 121.412V123.026C328.666 125.227 326.895 127.01 324.708 127.01H323.125C323.016 127.01 322.907 127.01 322.798 127C322.66 127.01 322.521 127.01 322.383 127.01L319.166 127H316.791C314.604 127 312.833 125.217 312.833 123.016V120.625V114.25C312.833 112.487 311.418 111.062 309.666 111.062H303.333C301.582 111.062 300.166 112.487 300.166 114.25V120.625V123.016C300.166 125.217 298.395 127 296.208 127H293.833H290.676C290.528 127 290.379 126.99 290.231 126.98C290.112 126.99 289.994 127 289.875 127H288.291C286.104 127 284.333 125.217 284.333 123.016V111.859C284.333 111.77 284.333 111.67 284.343 111.58V104.638H281.176C279.395 104.638 278.01 103.243 278.01 101.44C278.01 100.544 278.307 99.7469 278.999 99.0496L304.362 76.7969C305.055 76.0996 305.847 76 306.539 76C307.232 76 308.024 76.1992 308.618 76.6973L333.891 99.0596C334.683 99.7568 335.079 100.554 334.98 101.45Z" fill="#6741D9"/>
</g>
<g filter="url(#filter6_d_986_723)">
<rect x="181" y="78" width="105" height="105" rx="20" fill="white"/>
</g>
<g clip-path="url(#clip3_986_723)">
<path d="M262.323 91.9737C264.951 89.3421 269.21 89.3421 271.838 91.9737C272.137 92.2734 272.402 92.5944 272.633 92.9316C273.432 94.0401 273.904 95.4015 273.904 96.8735V164.261C273.904 167.983 270.892 171 267.176 171C265.961 171 264.821 170.677 263.837 170.112L263.647 170.001C263.175 169.72 262.73 169.376 262.323 168.969L260.449 167.091V112.912L242.918 130.471L242.919 130.473L233.405 140.003L233.404 140.002L233.401 140.004L223.887 130.474L223.89 130.471L206.493 113.046V147.897L206.494 147.896V166.956L205.15 168.303C203.922 169.94 201.968 171 199.766 171C197.467 171 195.438 169.845 194.224 168.082C193.264 166.719 192.869 165.078 193.038 163.486V97.4591C192.83 95.5031 193.473 93.473 194.97 91.9737C197.597 89.3421 201.857 89.3421 204.484 91.9737L233.404 120.941L262.323 91.9737ZM254.259 141.832V160.892L237.782 144.387L247.296 134.856L254.259 141.832ZM229.025 144.388L212.684 160.756V141.696L219.51 134.858L229.025 144.388Z" fill="#6741D9"/>
</g>
<defs>
<filter id="filter0_d_986_723" x="0" y="0" width="93" height="93" filterUnits="userSpaceOnUse" color-interpolation-filters="sRGB">
<feFlood flood-opacity="0" result="BackgroundImageFix"/>
<feColorMatrix in="SourceAlpha" type="matrix" values="0 0 0 0 0 0 0 0 0 0 0 0 0 0 0 0 0 0 127 0" result="hardAlpha"/>
<feOffset dx="2"/>
<feGaussianBlur stdDeviation="2"/>
<feComposite in2="hardAlpha" operator="out"/>
<feColorMatrix type="matrix" values="0 0 0 0 0 0 0 0 0 0 0 0 0 0 0 0 0 0 0.25 0"/>
<feBlend mode="normal" in2="BackgroundImageFix" result="effect1_dropShadow_986_723"/>
<feBlend mode="normal" in="SourceGraphic" in2="effect1_dropShadow_986_723" result="shape"/>
</filter>
<filter id="filter1_d_986_723" x="58" y="28" width="93" height="93" filterUnits="userSpaceOnUse" color-interpolation-filters="sRGB">
<feFlood flood-opacity="0" result="BackgroundImageFix"/>
<feColorMatrix in="SourceAlpha" type="matrix" values="0 0 0 0 0 0 0 0 0 0 0 0 0 0 0 0 0 0 127 0" result="hardAlpha"/>
<feOffset dx="2"/>
<feGaussianBlur stdDeviation="2"/>
<feComposite in2="hardAlpha" operator="out"/>
<feColorMatrix type="matrix" values="0 0 0 0 0 0 0 0 0 0 0 0 0 0 0 0 0 0 0.25 0"/>
<feBlend mode="normal" in2="BackgroundImageFix" result="effect1_dropShadow_986_723"/>
<feBlend mode="normal" in="SourceGraphic" in2="effect1_dropShadow_986_723" result="shape"/>
</filter>
<filter id="filter2_d_986_723" x="378" y="0" width="93" height="93" filterUnits="userSpaceOnUse" color-interpolation-filters="sRGB">
<feFlood flood-opacity="0" result="BackgroundImageFix"/>
<feColorMatrix in="SourceAlpha" type="matrix" values="0 0 0 0 0 0 0 0 0 0 0 0 0 0 0 0 0 0 127 0" result="hardAlpha"/>
<feOffset dx="2"/>
<feGaussianBlur stdDeviation="2"/>
<feComposite in2="hardAlpha" operator="out"/>
<feColorMatrix type="matrix" values="0 0 0 0 0 0 0 0 0 0 0 0 0 0 0 0 0 0 0.25 0"/>
<feBlend mode="normal" in2="BackgroundImageFix" result="effect1_dropShadow_986_723"/>
<feBlend mode="normal" in="SourceGraphic" in2="effect1_dropShadow_986_723" result="shape"/>
</filter>
<filter id="filter3_d_986_723" x="320" y="28" width="93" height="93" filterUnits="userSpaceOnUse" color-interpolation-filters="sRGB">
<feFlood flood-opacity="0" result="BackgroundImageFix"/>
<feColorMatrix in="SourceAlpha" type="matrix" values="0 0 0 0 0 0 0 0 0 0 0 0 0 0 0 0 0 0 127 0" result="hardAlpha"/>
<feOffset dx="2"/>
<feGaussianBlur stdDeviation="2"/>
<feComposite in2="hardAlpha" operator="out"/>
<feColorMatrix type="matrix" values="0 0 0 0 0 0 0 0 0 0 0 0 0 0 0 0 0 0 0.25 0"/>
<feBlend mode="normal" in2="BackgroundImageFix" result="effect1_dropShadow_986_723"/>
<feBlend mode="normal" in="SourceGraphic" in2="effect1_dropShadow_986_723" result="shape"/>
</filter>
<filter id="filter4_d_986_723" x="116" y="55" width="93" height="93" filterUnits="userSpaceOnUse" color-interpolation-filters="sRGB">
<feFlood flood-opacity="0" result="BackgroundImageFix"/>
<feColorMatrix in="SourceAlpha" type="matrix" values="0 0 0 0 0 0 0 0 0 0 0 0 0 0 0 0 0 0 127 0" result="hardAlpha"/>
<feOffset dx="2"/>
<feGaussianBlur stdDeviation="2"/>
<feComposite in2="hardAlpha" operator="out"/>
<feColorMatrix type="matrix" values="0 0 0 0 0 0 0 0 0 0 0 0 0 0 0 0 0 0 0.25 0"/>
<feBlend mode="normal" in2="BackgroundImageFix" result="effect1_dropShadow_986_723"/>
<feBlend mode="normal" in="SourceGraphic" in2="effect1_dropShadow_986_723" result="shape"/>
</filter>
<filter id="filter5_d_986_723" x="262" y="55" width="93" height="93" filterUnits="userSpaceOnUse" color-interpolation-filters="sRGB">
<feFlood flood-opacity="0" result="BackgroundImageFix"/>
<feColorMatrix in="SourceAlpha" type="matrix" values="0 0 0 0 0 0 0 0 0 0 0 0 0 0 0 0 0 0 127 0" result="hardAlpha"/>
<feOffset dx="2"/>
<feGaussianBlur stdDeviation="2"/>
<feComposite in2="hardAlpha" operator="out"/>
<feColorMatrix type="matrix" values="0 0 0 0 0 0 0 0 0 0 0 0 0 0 0 0 0 0 0.25 0"/>
<feBlend mode="normal" in2="BackgroundImageFix" result="effect1_dropShadow_986_723"/>
<feBlend mode="normal" in="SourceGraphic" in2="effect1_dropShadow_986_723" result="shape"/>
</filter>
<filter id="filter6_d_986_723" x="179" y="74" width="113" height="113" filterUnits="userSpaceOnUse" color-interpolation-filters="sRGB">
<feFlood flood-opacity="0" result="BackgroundImageFix"/>
<feColorMatrix in="SourceAlpha" type="matrix" values="0 0 0 0 0 0 0 0 0 0 0 0 0 0 0 0 0 0 127 0" result="hardAlpha"/>
<feOffset dx="2"/>
<feGaussianBlur stdDeviation="2"/>
<feComposite in2="hardAlpha" operator="out"/>
<feColorMatrix type="matrix" values="0 0 0 0 0 0 0 0 0 0 0 0 0 0 0 0 0 0 0.25 0"/>
<feBlend mode="normal" in2="BackgroundImageFix" result="effect1_dropShadow_986_723"/>
<feBlend mode="normal" in="SourceGraphic" in2="effect1_dropShadow_986_723" result="shape"/>
</filter>
<clipPath id="clip0_986_723">
<rect width="63" height="51" fill="white" transform="translate(391 21)"/>
</clipPath>
<clipPath id="clip1_986_723">
<rect width="57" height="51" fill="white" transform="translate(132 76)"/>
</clipPath>
<clipPath id="clip2_986_723">
<rect width="57" height="51" fill="white" transform="translate(278 76)"/>
</clipPath>
<clipPath id="clip3_986_723">
<rect width="81" height="81" fill="white" transform="translate(193 90)"/>
</clipPath>
</defs>
</svg>
