<svg width="202" height="383" viewBox="0 0 202 383" fill="none" xmlns="http://www.w3.org/2000/svg">
<g filter="url(#filter0_d_1111_59)">
<rect x="2" y="4" width="105" height="105" rx="20" fill="white"/>
</g>
<g clip-path="url(#clip0_1111_59)">
<path d="M32.6 38.25C32.6 34.2235 35.8736 30.95 39.9 30.95H80.05C84.0764 30.95 87.35 34.2235 87.35 38.25V65.625H76.4V63.8C76.4 61.781 74.7689 60.15 72.75 60.15H65.45C63.4311 60.15 61.8 61.781 61.8 63.8V65.625H47.0745C48.3178 63.4806 49.025 60.9826 49.025 58.325C49.025 50.2607 42.4892 43.725 34.425 43.725C33.8091 43.725 33.1931 43.7592 32.6 43.839V38.25ZM55.9828 78.4C55.4011 75.6396 54.1236 73.1417 52.3214 71.1H87.35C87.35 75.1264 84.0764 78.4 80.05 78.4H55.9828ZM25.3 58.325C25.3 53.2834 29.3834 49.2 34.425 49.2C39.4666 49.2 43.55 53.2834 43.55 58.325C43.55 63.3665 39.4666 67.45 34.425 67.45C29.3834 67.45 25.3 63.3665 25.3 58.325ZM18 82.05C18 76.0046 22.9047 71.1 28.95 71.1H39.9C45.9453 71.1 50.85 76.0046 50.85 82.05C50.85 84.0689 49.2189 85.7 47.2 85.7H21.65C19.6311 85.7 18 84.0689 18 82.05Z" fill="#6741D9"/>
</g>
<g filter="url(#filter1_d_1111_59)">
<rect x="91" y="93" width="105" height="105" rx="20" fill="white"/>
</g>
<g clip-path="url(#clip1_1111_59)">
<path d="M168.092 118.775C165.594 116.277 161.556 116.277 159.058 118.775L156.275 121.558L167.442 132.725L170.225 129.942C172.723 127.444 172.723 123.406 170.225 120.908L168.092 118.775ZM133.964 143.869C133.268 144.565 132.732 145.42 132.424 146.367L129.048 156.496C128.717 157.477 128.98 158.56 129.71 159.302C130.44 160.043 131.523 160.294 132.516 159.963L142.644 156.587C143.58 156.279 144.435 155.743 145.142 155.047L163.575 136.592L152.408 125.425L133.964 143.869ZM125.25 123.6C119.204 123.6 114.3 128.505 114.3 134.55V163.75C114.3 169.795 119.204 174.7 125.25 174.7H154.45C160.495 174.7 165.4 169.795 165.4 163.75V152.8C165.4 150.781 163.769 149.15 161.75 149.15C159.731 149.15 158.1 150.781 158.1 152.8V163.75C158.1 165.769 156.469 167.4 154.45 167.4H125.25C123.231 167.4 121.6 165.769 121.6 163.75V134.55C121.6 132.531 123.231 130.9 125.25 130.9H136.2C138.219 130.9 139.85 129.269 139.85 127.25C139.85 125.231 138.219 123.6 136.2 123.6H125.25Z" fill="#6741D9"/>
</g>
<g filter="url(#filter2_d_1111_59)">
<rect x="2" y="182" width="105" height="105" rx="20" fill="white"/>
</g>
<g clip-path="url(#clip2_1111_59)">
<path d="M54.5004 203.475C52.9834 203.475 51.7629 204.695 51.7629 206.212V207.581H51.5576C47.3829 207.581 44.0066 210.969 44.0066 215.132C44.0066 218.942 46.8468 222.158 50.6223 222.626L57.5801 223.493C58.1618 223.561 58.6066 224.063 58.6066 224.656C58.6066 225.307 58.082 225.82 57.4432 225.82L49.0254 225.831C47.2574 225.831 45.8316 227.257 45.8316 229.025C45.8316 230.793 47.2574 232.219 49.0254 232.219H51.7629V233.587C51.7629 235.105 52.9834 236.325 54.5004 236.325C56.0174 236.325 57.2379 235.105 57.2379 233.587V232.219H57.4432C61.6179 232.219 64.9941 228.831 64.9941 224.668C64.9941 220.858 62.154 217.642 58.3785 217.174L51.4207 216.307C50.839 216.239 50.3941 215.737 50.3941 215.144C50.3941 214.493 50.9188 213.98 51.5576 213.98L59.0629 213.969C60.8309 213.969 62.2566 212.543 62.2566 210.775C62.2566 209.007 60.8309 207.581 59.0629 207.581H57.2379V206.212C57.2379 204.695 56.0174 203.475 54.5004 203.475ZM34.1174 244.252L29.2584 249.1H25.3004C23.2815 249.1 21.6504 250.731 21.6504 252.75V260.05C21.6504 262.069 23.2815 263.7 25.3004 263.7H61.8574C65.1652 263.7 68.3932 262.639 71.0623 260.677L85.5026 250.035C87.5329 248.541 87.9663 245.69 86.4721 243.659C84.9779 241.629 82.1263 241.195 80.096 242.69L66.4313 252.75H53.5879C52.0709 252.75 50.8504 251.53 50.8504 250.012C50.8504 248.495 52.0709 247.275 53.5879 247.275H61.8004C63.8193 247.275 65.4504 245.644 65.4504 243.625C65.4504 241.606 63.8193 239.975 61.8004 239.975H44.4401C40.5734 239.975 36.8549 241.515 34.1174 244.252Z" fill="#6741D9"/>
</g>
<g filter="url(#filter3_d_1111_59)">
<rect x="91" y="274" width="105" height="105" rx="20" fill="white"/>
</g>
<g clip-path="url(#clip3_1111_59)">
<path d="M154.45 313.725C154.45 324.812 144.641 333.8 132.55 333.8C129.504 333.8 126.607 333.23 123.972 332.203L114.665 337.131C113.604 337.69 112.304 337.496 111.448 336.652C110.593 335.808 110.399 334.496 110.969 333.435L115.03 325.77C112.281 322.417 110.65 318.242 110.65 313.725C110.65 302.638 120.459 293.65 132.55 293.65C144.641 293.65 154.45 302.638 154.45 313.725ZM154.45 355.7C143.717 355.7 134.786 348.617 132.915 339.275C146.602 339.104 158.499 329.363 159.811 316.155C169.312 318.345 176.35 326.226 176.35 335.625C176.35 340.142 174.719 344.317 171.97 347.67L176.031 355.335C176.589 356.396 176.396 357.696 175.551 358.552C174.707 359.407 173.396 359.601 172.335 359.031L163.027 354.103C160.393 355.13 157.495 355.7 154.45 355.7Z" fill="#6741D9"/>
</g>
<defs>
<filter id="filter0_d_1111_59" x="0" y="0" width="113" height="113" filterUnits="userSpaceOnUse" color-interpolation-filters="sRGB">
<feFlood flood-opacity="0" result="BackgroundImageFix"/>
<feColorMatrix in="SourceAlpha" type="matrix" values="0 0 0 0 0 0 0 0 0 0 0 0 0 0 0 0 0 0 127 0" result="hardAlpha"/>
<feOffset dx="2"/>
<feGaussianBlur stdDeviation="2"/>
<feComposite in2="hardAlpha" operator="out"/>
<feColorMatrix type="matrix" values="0 0 0 0 0 0 0 0 0 0 0 0 0 0 0 0 0 0 0.25 0"/>
<feBlend mode="normal" in2="BackgroundImageFix" result="effect1_dropShadow_1111_59"/>
<feBlend mode="normal" in="SourceGraphic" in2="effect1_dropShadow_1111_59" result="shape"/>
</filter>
<filter id="filter1_d_1111_59" x="89" y="89" width="113" height="113" filterUnits="userSpaceOnUse" color-interpolation-filters="sRGB">
<feFlood flood-opacity="0" result="BackgroundImageFix"/>
<feColorMatrix in="SourceAlpha" type="matrix" values="0 0 0 0 0 0 0 0 0 0 0 0 0 0 0 0 0 0 127 0" result="hardAlpha"/>
<feOffset dx="2"/>
<feGaussianBlur stdDeviation="2"/>
<feComposite in2="hardAlpha" operator="out"/>
<feColorMatrix type="matrix" values="0 0 0 0 0 0 0 0 0 0 0 0 0 0 0 0 0 0 0.25 0"/>
<feBlend mode="normal" in2="BackgroundImageFix" result="effect1_dropShadow_1111_59"/>
<feBlend mode="normal" in="SourceGraphic" in2="effect1_dropShadow_1111_59" result="shape"/>
</filter>
<filter id="filter2_d_1111_59" x="0" y="178" width="113" height="113" filterUnits="userSpaceOnUse" color-interpolation-filters="sRGB">
<feFlood flood-opacity="0" result="BackgroundImageFix"/>
<feColorMatrix in="SourceAlpha" type="matrix" values="0 0 0 0 0 0 0 0 0 0 0 0 0 0 0 0 0 0 127 0" result="hardAlpha"/>
<feOffset dx="2"/>
<feGaussianBlur stdDeviation="2"/>
<feComposite in2="hardAlpha" operator="out"/>
<feColorMatrix type="matrix" values="0 0 0 0 0 0 0 0 0 0 0 0 0 0 0 0 0 0 0.25 0"/>
<feBlend mode="normal" in2="BackgroundImageFix" result="effect1_dropShadow_1111_59"/>
<feBlend mode="normal" in="SourceGraphic" in2="effect1_dropShadow_1111_59" result="shape"/>
</filter>
<filter id="filter3_d_1111_59" x="89" y="270" width="113" height="113" filterUnits="userSpaceOnUse" color-interpolation-filters="sRGB">
<feFlood flood-opacity="0" result="BackgroundImageFix"/>
<feColorMatrix in="SourceAlpha" type="matrix" values="0 0 0 0 0 0 0 0 0 0 0 0 0 0 0 0 0 0 127 0" result="hardAlpha"/>
<feOffset dx="2"/>
<feGaussianBlur stdDeviation="2"/>
<feComposite in2="hardAlpha" operator="out"/>
<feColorMatrix type="matrix" values="0 0 0 0 0 0 0 0 0 0 0 0 0 0 0 0 0 0 0.25 0"/>
<feBlend mode="normal" in2="BackgroundImageFix" result="effect1_dropShadow_1111_59"/>
<feBlend mode="normal" in="SourceGraphic" in2="effect1_dropShadow_1111_59" result="shape"/>
</filter>
<clipPath id="clip0_1111_59">
<rect width="73" height="73" fill="white" transform="translate(18 20)"/>
</clipPath>
<clipPath id="clip1_1111_59">
<rect width="73" height="73" fill="white" transform="translate(107 109)"/>
</clipPath>
<clipPath id="clip2_1111_59">
<rect width="73" height="73" fill="white" transform="translate(18 198)"/>
</clipPath>
<clipPath id="clip3_1111_59">
<rect width="73" height="73" fill="white" transform="translate(107 290)"/>
</clipPath>
</defs>
</svg>
