<svg width="380" height="175" viewBox="0 0 380 175" fill="none" xmlns="http://www.w3.org/2000/svg">
<g filter="url(#filter0_d_1119_2)">
<rect x="2" y="4" width="105" height="105" rx="20" fill="white"/>
</g>
<g clip-path="url(#clip0_1119_2)">
<path d="M32.6 38.25C32.6 34.2235 35.8736 30.95 39.9 30.95H80.05C84.0764 30.95 87.35 34.2235 87.35 38.25V65.625H76.4V63.8C76.4 61.781 74.7689 60.15 72.75 60.15H65.45C63.4311 60.15 61.8 61.781 61.8 63.8V65.625H47.0745C48.3178 63.4806 49.025 60.9826 49.025 58.325C49.025 50.2607 42.4892 43.725 34.425 43.725C33.8091 43.725 33.1931 43.7592 32.6 43.839V38.25ZM55.9828 78.4C55.4011 75.6396 54.1236 73.1417 52.3214 71.1H87.35C87.35 75.1264 84.0764 78.4 80.05 78.4H55.9828ZM25.3 58.325C25.3 53.2834 29.3834 49.2 34.425 49.2C39.4666 49.2 43.55 53.2834 43.55 58.325C43.55 63.3665 39.4666 67.45 34.425 67.45C29.3834 67.45 25.3 63.3665 25.3 58.325ZM18 82.05C18 76.0046 22.9047 71.1 28.95 71.1H39.9C45.9453 71.1 50.85 76.0046 50.85 82.05C50.85 84.0689 49.2189 85.7 47.2 85.7H21.65C19.6311 85.7 18 84.0689 18 82.05Z" fill="#6741D9"/>
</g>
<g filter="url(#filter1_d_1119_2)">
<rect x="180" y="4" width="105" height="105" rx="20" fill="white"/>
</g>
<g clip-path="url(#clip1_1119_2)">
<path d="M232.5 25.475C230.983 25.475 229.763 26.6954 229.763 28.2125V29.5812H229.558C225.383 29.5812 222.007 32.9689 222.007 37.1322C222.007 40.9418 224.847 44.1584 228.622 44.6261L235.58 45.4929C236.162 45.5614 236.607 46.0633 236.607 46.6564C236.607 47.3065 236.082 47.8198 235.443 47.8198L227.025 47.8312C225.257 47.8312 223.832 49.257 223.832 51.025C223.832 52.7929 225.257 54.2187 227.025 54.2187H229.763V55.5875C229.763 57.1045 230.983 58.325 232.5 58.325C234.017 58.325 235.238 57.1045 235.238 55.5875V54.2187H235.443C239.618 54.2187 242.994 50.8311 242.994 46.6678C242.994 42.8581 240.154 39.6415 236.379 39.1739L229.421 38.307C228.839 38.2386 228.394 37.7367 228.394 37.1436C228.394 36.4934 228.919 35.9801 229.558 35.9801L237.063 35.9687C238.831 35.9687 240.257 34.5429 240.257 32.775C240.257 31.007 238.831 29.5812 237.063 29.5812H235.238V28.2125C235.238 26.6954 234.017 25.475 232.5 25.475ZM212.117 66.2523L207.258 71.1H203.3C201.281 71.1 199.65 72.7311 199.65 74.75V82.05C199.65 84.0689 201.281 85.7 203.3 85.7H239.857C243.165 85.7 246.393 84.6392 249.062 82.6773L263.503 72.0353C265.533 70.5411 265.966 67.6895 264.472 65.6592C262.978 63.6289 260.126 63.1954 258.096 64.6897L244.431 74.75H231.588C230.071 74.75 228.85 73.5295 228.85 72.0125C228.85 70.4954 230.071 69.275 231.588 69.275H239.8C241.819 69.275 243.45 67.6439 243.45 65.625C243.45 63.6061 241.819 61.975 239.8 61.975H222.44C218.573 61.975 214.855 63.5148 212.117 66.2523Z" fill="#6741D9"/>
</g>
<g filter="url(#filter2_d_1119_2)">
<rect x="269" y="66" width="105" height="105" rx="20" fill="white"/>
</g>
<g clip-path="url(#clip2_1119_2)">
<path d="M332.45 105.725C332.45 116.812 322.641 125.8 310.55 125.8C307.504 125.8 304.607 125.23 301.972 124.203L292.665 129.131C291.604 129.69 290.304 129.496 289.448 128.652C288.593 127.808 288.399 126.496 288.969 125.435L293.03 117.77C290.281 114.417 288.65 110.242 288.65 105.725C288.65 94.6381 298.459 85.65 310.55 85.65C322.641 85.65 332.45 94.6381 332.45 105.725ZM332.45 147.7C321.717 147.7 312.786 140.617 310.915 131.275C324.602 131.104 336.499 121.363 337.811 108.155C347.312 110.345 354.35 118.226 354.35 127.625C354.35 132.142 352.719 136.317 349.97 139.67L354.031 147.335C354.589 148.396 354.396 149.696 353.551 150.552C352.707 151.407 351.396 151.601 350.335 151.031L341.027 146.103C338.393 147.13 335.495 147.7 332.45 147.7Z" fill="#6741D9"/>
</g>
<g filter="url(#filter3_d_1119_2)">
<rect x="91" y="66" width="105" height="105" rx="20" fill="white"/>
</g>
<g clip-path="url(#clip3_1119_2)">
<path d="M168.092 91.7752C165.594 89.2772 161.556 89.2772 159.058 91.7752L156.275 94.5583L167.442 105.725L170.225 102.942C172.723 100.444 172.723 96.4061 170.225 93.9082L168.092 91.7752ZM133.964 116.869C133.268 117.565 132.732 118.42 132.424 119.367L129.048 129.496C128.717 130.477 128.98 131.56 129.71 132.302C130.44 133.043 131.523 133.294 132.516 132.963L142.644 129.587C143.58 129.279 144.435 128.743 145.142 128.047L163.575 109.592L152.408 98.4251L133.964 116.869ZM125.25 96.6001C119.204 96.6001 114.3 101.505 114.3 107.55V136.75C114.3 142.795 119.204 147.7 125.25 147.7H154.45C160.495 147.7 165.4 142.795 165.4 136.75V125.8C165.4 123.781 163.769 122.15 161.75 122.15C159.731 122.15 158.1 123.781 158.1 125.8V136.75C158.1 138.769 156.469 140.4 154.45 140.4H125.25C123.231 140.4 121.6 138.769 121.6 136.75V107.55C121.6 105.531 123.231 103.9 125.25 103.9H136.2C138.219 103.9 139.85 102.269 139.85 100.25C139.85 98.2311 138.219 96.6001 136.2 96.6001H125.25Z" fill="#6741D9"/>
</g>
<defs>
<filter id="filter0_d_1119_2" x="0" y="0" width="113" height="113" filterUnits="userSpaceOnUse" color-interpolation-filters="sRGB">
<feFlood flood-opacity="0" result="BackgroundImageFix"/>
<feColorMatrix in="SourceAlpha" type="matrix" values="0 0 0 0 0 0 0 0 0 0 0 0 0 0 0 0 0 0 127 0" result="hardAlpha"/>
<feOffset dx="2"/>
<feGaussianBlur stdDeviation="2"/>
<feComposite in2="hardAlpha" operator="out"/>
<feColorMatrix type="matrix" values="0 0 0 0 0 0 0 0 0 0 0 0 0 0 0 0 0 0 0.25 0"/>
<feBlend mode="normal" in2="BackgroundImageFix" result="effect1_dropShadow_1119_2"/>
<feBlend mode="normal" in="SourceGraphic" in2="effect1_dropShadow_1119_2" result="shape"/>
</filter>
<filter id="filter1_d_1119_2" x="178" y="0" width="113" height="113" filterUnits="userSpaceOnUse" color-interpolation-filters="sRGB">
<feFlood flood-opacity="0" result="BackgroundImageFix"/>
<feColorMatrix in="SourceAlpha" type="matrix" values="0 0 0 0 0 0 0 0 0 0 0 0 0 0 0 0 0 0 127 0" result="hardAlpha"/>
<feOffset dx="2"/>
<feGaussianBlur stdDeviation="2"/>
<feComposite in2="hardAlpha" operator="out"/>
<feColorMatrix type="matrix" values="0 0 0 0 0 0 0 0 0 0 0 0 0 0 0 0 0 0 0.25 0"/>
<feBlend mode="normal" in2="BackgroundImageFix" result="effect1_dropShadow_1119_2"/>
<feBlend mode="normal" in="SourceGraphic" in2="effect1_dropShadow_1119_2" result="shape"/>
</filter>
<filter id="filter2_d_1119_2" x="267" y="62" width="113" height="113" filterUnits="userSpaceOnUse" color-interpolation-filters="sRGB">
<feFlood flood-opacity="0" result="BackgroundImageFix"/>
<feColorMatrix in="SourceAlpha" type="matrix" values="0 0 0 0 0 0 0 0 0 0 0 0 0 0 0 0 0 0 127 0" result="hardAlpha"/>
<feOffset dx="2"/>
<feGaussianBlur stdDeviation="2"/>
<feComposite in2="hardAlpha" operator="out"/>
<feColorMatrix type="matrix" values="0 0 0 0 0 0 0 0 0 0 0 0 0 0 0 0 0 0 0.25 0"/>
<feBlend mode="normal" in2="BackgroundImageFix" result="effect1_dropShadow_1119_2"/>
<feBlend mode="normal" in="SourceGraphic" in2="effect1_dropShadow_1119_2" result="shape"/>
</filter>
<filter id="filter3_d_1119_2" x="89" y="62" width="113" height="113" filterUnits="userSpaceOnUse" color-interpolation-filters="sRGB">
<feFlood flood-opacity="0" result="BackgroundImageFix"/>
<feColorMatrix in="SourceAlpha" type="matrix" values="0 0 0 0 0 0 0 0 0 0 0 0 0 0 0 0 0 0 127 0" result="hardAlpha"/>
<feOffset dx="2"/>
<feGaussianBlur stdDeviation="2"/>
<feComposite in2="hardAlpha" operator="out"/>
<feColorMatrix type="matrix" values="0 0 0 0 0 0 0 0 0 0 0 0 0 0 0 0 0 0 0.25 0"/>
<feBlend mode="normal" in2="BackgroundImageFix" result="effect1_dropShadow_1119_2"/>
<feBlend mode="normal" in="SourceGraphic" in2="effect1_dropShadow_1119_2" result="shape"/>
</filter>
<clipPath id="clip0_1119_2">
<rect width="73" height="73" fill="white" transform="translate(18 20)"/>
</clipPath>
<clipPath id="clip1_1119_2">
<rect width="73" height="73" fill="white" transform="translate(196 20)"/>
</clipPath>
<clipPath id="clip2_1119_2">
<rect width="73" height="73" fill="white" transform="translate(285 82)"/>
</clipPath>
<clipPath id="clip3_1119_2">
<rect width="73" height="73" fill="white" transform="translate(107 82)"/>
</clipPath>
</defs>
</svg>
