<svg width="24" height="22" viewBox="0 0 24 22" fill="none" xmlns="http://www.w3.org/2000/svg">
<g clip-path="url(#clip0_986_526)">
<path d="M12.0166 0C12.3082 0 12.6416 0.0859773 12.8916 0.300781L23.5332 9.94727C23.8665 10.248 24.0338 10.5918 23.9922 10.9785C23.9922 11.752 23.3665 12.3574 22.6582 12.3574H21.3252L21.3545 19.2412C21.3545 19.3572 21.3455 19.4738 21.333 19.5898V20.2852C21.333 21.2347 20.5877 22.0037 19.667 22.0039H19C18.9542 22.0039 18.9081 22.0043 18.8623 22C18.8041 22.0043 18.7458 22.0039 18.6875 22.0039L17.333 22H16.333C15.5869 21.9998 14.9557 21.4947 14.7432 20.7979V13.0684H17.8291C18.2403 13.0682 18.6087 12.8242 18.7715 12.4473C18.9343 12.0701 18.8571 11.633 18.5742 11.333L12.7461 5.16113C12.5532 4.95545 12.2828 4.83984 12 4.83984C11.7174 4.83988 11.4477 4.9557 11.2549 5.16113L5.42578 11.333C5.143 11.633 5.06568 12.0702 5.22852 12.4473C5.39138 12.8244 5.76474 13.0684 6.17188 13.0684H9.25684V20.7979C9.04431 21.4947 8.41313 21.9999 7.66699 22H5.33789C5.2755 22 5.21278 21.9955 5.15039 21.9912C5.10039 21.9955 5.05 22 5 22H4.33301C3.41234 21.9998 2.66699 21.2307 2.66699 20.2812V15.4688C2.66699 15.4301 2.66675 15.3873 2.6709 15.3486V12.3535H1.33789C0.588016 12.3535 0.00410163 11.7522 0.00390625 10.9746C0.00390625 10.588 0.129364 10.2441 0.420898 9.94336L11.0996 0.34375C11.3912 0.0430065 11.725 1.07772e-05 12.0166 0Z" fill="black"/>
</g>
<defs>
<clipPath id="clip0_986_526">
<rect width="24" height="22" fill="white"/>
</clipPath>
</defs>
</svg>
