<svg width="24" height="24" viewBox="0 0 24 24" fill="none" xmlns="http://www.w3.org/2000/svg">
<rect width="24" height="24" rx="4" fill="black"/>
<path d="M14.4284 9.324C14.4284 9.996 14.2664 10.626 13.9424 11.214C13.6304 11.802 13.1324 12.276 12.4484 12.636C11.7764 12.996 10.9244 13.176 9.89241 13.176H7.78641V18H5.26641V5.436H9.89241C10.8644 5.436 11.6924 5.604 12.3764 5.94C13.0604 6.276 13.5704 6.738 13.9064 7.326C14.2544 7.914 14.4284 8.58 14.4284 9.324ZM9.78441 11.142C10.4804 11.142 10.9964 10.986 11.3324 10.674C11.6684 10.35 11.8364 9.9 11.8364 9.324C11.8364 8.1 11.1524 7.488 9.78441 7.488H7.78641V11.142H9.78441Z" fill="white"/>
<g clip-path="url(#clip0_1015_96)">
<path d="M16.25 12H14.3214C14.1433 12 14 12.1433 14 12.3214V14.25C14 14.3799 14.0777 14.4978 14.1982 14.5473C14.3187 14.5969 14.4567 14.5701 14.5491 14.4777L15.0848 13.942L16.1429 15L15.0848 16.058L14.5491 15.5223C14.4567 15.4299 14.3187 15.4031 14.1982 15.4527C14.0777 15.5022 14 15.6201 14 15.75V17.6786C14 17.8567 14.1433 18 14.3214 18H16.25C16.3799 18 16.4978 17.9223 16.5473 17.8018C16.5969 17.6813 16.5701 17.5433 16.4777 17.4509L15.942 16.9152L17 15.8571L18.058 16.9152L17.5223 17.4509C17.4299 17.5433 17.4031 17.6813 17.4527 17.8018C17.5022 17.9223 17.6201 18 17.75 18H19.6786C19.8567 18 20 17.8567 20 17.6786V15.75C20 15.6201 19.9223 15.5022 19.8018 15.4527C19.6813 15.4031 19.5433 15.4299 19.4509 15.5223L18.9152 16.058L17.8571 15L18.9152 13.942L19.4509 14.4777C19.5433 14.5701 19.6813 14.5969 19.8018 14.5473C19.9223 14.4978 20 14.3799 20 14.25V12.3214C20 12.1433 19.8567 12 19.6786 12H17.75C17.6201 12 17.5022 12.0777 17.4527 12.1982C17.4031 12.3187 17.4299 12.4567 17.5223 12.5491L18.058 13.0848L17 14.1429L15.942 13.0848L16.4777 12.5491C16.5701 12.4567 16.5969 12.3187 16.5473 12.1982C16.4978 12.0777 16.3799 12 16.25 12Z" fill="white"/>
</g>
<defs>
<clipPath id="clip0_1015_96">
<rect width="6" height="6" fill="white" transform="translate(14 12)"/>
</clipPath>
</defs>
</svg>
