<svg width="24" height="24" viewBox="0 0 24 24" fill="none" xmlns="http://www.w3.org/2000/svg">
<rect width="24" height="24" rx="4" fill="white"/>
<path d="M14.4284 9.324C14.4284 9.996 14.2664 10.626 13.9424 11.214C13.6304 11.802 13.1324 12.276 12.4484 12.636C11.7764 12.996 10.9244 13.176 9.89241 13.176H7.78641V18H5.26641V5.436H9.89241C10.8644 5.436 11.6924 5.604 12.3764 5.94C13.0604 6.276 13.5704 6.738 13.9064 7.326C14.2544 7.914 14.4284 8.58 14.4284 9.324ZM9.78441 11.142C10.4804 11.142 10.9964 10.986 11.3324 10.674C11.6684 10.35 11.8364 9.9 11.8364 9.324C11.8364 8.1 11.1524 7.488 9.78441 7.488H7.78641V11.142H9.78441Z" fill="black"/>
<g clip-path="url(#clip0_1015_92)">
<path d="M19.969 12.7734C20.0283 12.6359 20.0002 12.4766 19.8971 12.3672L17.7721 10.1172C17.7018 10.0422 17.6033 10 17.5002 10C17.3971 10 17.2986 10.0422 17.2283 10.1172L15.1033 12.3672C15.0002 12.4766 14.9721 12.6359 15.0315 12.7734C15.0908 12.9109 15.2252 13 15.3752 13H16.5002V17.5C16.5002 17.7766 16.7236 18 17.0002 18H18.0002C18.2768 18 18.5002 17.7766 18.5002 17.5V13H19.6252C19.7752 13 19.9096 12.9109 19.969 12.7734Z" fill="black"/>
</g>
<defs>
<clipPath id="clip0_1015_92">
<rect width="5" height="8" fill="black" transform="translate(15 10)"/>
</clipPath>
</defs>
</svg>
