<svg width="24" height="24" viewBox="0 0 24 24" fill="none" xmlns="http://www.w3.org/2000/svg">
<rect width="24" height="24" rx="4" fill="white"/>
<path d="M14.4284 9.324C14.4284 9.996 14.2664 10.626 13.9424 11.214C13.6304 11.802 13.1324 12.276 12.4484 12.636C11.7764 12.996 10.9244 13.176 9.89241 13.176H7.78641V18H5.26641V5.436H9.89241C10.8644 5.436 11.6924 5.604 12.3764 5.94C13.0604 6.276 13.5704 6.738 13.9064 7.326C14.2544 7.914 14.4284 8.58 14.4284 9.324ZM9.78441 11.142C10.4804 11.142 10.9964 10.986 11.3324 10.674C11.6684 10.35 11.8364 9.9 11.8364 9.324C11.8364 8.1 11.1524 7.488 9.78441 7.488H7.78641V11.142H9.78441Z" fill="black"/>
<g clip-path="url(#clip0_1015_93)">
<path d="M15.031 15.2266C14.9717 15.3641 14.9998 15.5234 15.1029 15.6328L17.2279 17.8828C17.2982 17.9578 17.3967 18 17.4998 18C17.6029 18 17.7014 17.9578 17.7717 17.8828L19.8967 15.6328C19.9998 15.5234 20.0279 15.3641 19.9685 15.2266C19.9092 15.0891 19.7748 15 19.6248 15H18.4998V10.5C18.4998 10.2234 18.2764 10 17.9998 10H16.9998C16.7232 10 16.4998 10.2234 16.4998 10.5V15H15.3748C15.2248 15 15.0904 15.0891 15.031 15.2266Z" fill="black"/>
</g>
<defs>
<clipPath id="clip0_1015_93">
<rect width="5" height="8" fill="black" transform="matrix(-1 0 0 -1 20 18)"/>
</clipPath>
</defs>
</svg>
