<svg width="24" height="24" viewBox="0 0 24 24" fill="none" xmlns="http://www.w3.org/2000/svg">
<rect width="24" height="24" rx="4" fill="white"/>
<path d="M14.4284 9.324C14.4284 9.996 14.2664 10.626 13.9424 11.214C13.6304 11.802 13.1324 12.276 12.4484 12.636C11.7764 12.996 10.9244 13.176 9.89241 13.176H7.78641V18H5.26641V5.436H9.89241C10.8644 5.436 11.6924 5.604 12.3764 5.94C13.0604 6.276 13.5704 6.738 13.9064 7.326C14.2544 7.914 14.4284 8.58 14.4284 9.324ZM9.78441 11.142C10.4804 11.142 10.9964 10.986 11.3324 10.674C11.6684 10.35 11.8364 9.9 11.8364 9.324C11.8364 8.1 11.1524 7.488 9.78441 7.488H7.78641V11.142H9.78441Z" fill="black"/>
<g clip-path="url(#clip0_1015_95)">
<path d="M17.8437 8.15039C17.7539 8.05469 17.6308 8 17.5 8C17.3691 8 17.2461 8.05469 17.1562 8.15039L15.125 10.3379C14.998 10.4746 14.9648 10.6738 15.039 10.8438C15.1133 11.0137 15.2832 11.125 15.4687 11.125H16.5625V14.875H15.4687C15.2832 14.875 15.1133 14.9863 15.039 15.1562C14.9648 15.3262 14.998 15.5254 15.125 15.6621L17.1562 17.8496C17.2441 17.9453 17.3691 18 17.5 18C17.6308 18 17.7539 17.9453 17.8437 17.8496L19.875 15.6621C20.0019 15.5254 20.0351 15.3262 19.9609 15.1562C19.8867 14.9863 19.7168 14.875 19.5312 14.875H18.4375V11.125H19.5312C19.7168 11.125 19.8867 11.0137 19.9609 10.8438C20.0351 10.6738 20.0019 10.4746 19.875 10.3379L17.8437 8.15039Z" fill="black"/>
</g>
<defs>
<clipPath id="clip0_1015_95">
<rect width="5" height="10" fill="black" transform="translate(15 8)"/>
</clipPath>
</defs>
</svg>
