<svg width="2254" height="640" viewBox="0 0 2254 640" fill="none" xmlns="http://www.w3.org/2000/svg">
<path d="M802.512 238.592C810.021 238.592 816.165 241.152 820.944 246.272C825.723 251.051 828.112 257.195 828.112 264.704V485.888C828.112 493.398 825.723 499.712 820.944 504.832C816.165 509.611 810.021 512 802.512 512C795.344 512 789.2 509.611 784.08 504.832C779.301 499.712 776.912 493.398 776.912 485.888V449.024L787.664 450.56C787.664 456.704 785.104 463.531 779.984 471.04C775.205 478.55 768.549 485.888 760.016 493.056C751.483 499.883 741.413 505.686 729.808 510.464C718.203 514.902 705.744 517.12 692.432 517.12C668.88 517.12 647.717 511.147 628.944 499.2C610.171 486.912 595.323 470.187 584.4 449.024C573.477 427.862 568.016 403.798 568.016 376.832C568.016 349.184 573.477 324.95 584.4 304.128C595.323 282.966 610 266.411 628.432 254.464C647.205 242.518 668.027 236.544 690.896 236.544C705.573 236.544 719.056 238.934 731.344 243.712C743.973 248.491 754.896 254.635 764.112 262.144C773.328 269.654 780.325 277.675 785.104 286.208C790.224 294.4 792.784 302.251 792.784 309.76L776.912 311.296V264.704C776.912 257.536 779.301 251.392 784.08 246.272C789.2 241.152 795.344 238.592 802.512 238.592ZM698.064 470.016C714.107 470.016 728.272 465.92 740.56 457.728C752.848 449.536 762.405 438.443 769.232 424.448C776.059 410.112 779.472 394.24 779.472 376.832C779.472 359.083 776.059 343.211 769.232 329.216C762.405 315.222 752.848 304.128 740.56 295.936C728.272 287.744 714.107 283.648 698.064 283.648C682.363 283.648 668.368 287.744 656.08 295.936C644.133 304.128 634.576 315.222 627.408 329.216C620.581 343.211 617.168 359.083 617.168 376.832C617.168 394.24 620.581 410.112 627.408 424.448C634.576 438.443 644.133 449.536 656.08 457.728C668.368 465.92 682.363 470.016 698.064 470.016ZM883.968 470.016C880.896 465.238 879.531 459.776 879.872 453.632C880.213 447.147 883.797 441.686 890.624 437.248C895.403 434.176 900.352 432.982 905.472 433.664C910.933 434.006 916.053 436.566 920.832 441.344C930.389 451.926 940.971 460.288 952.576 466.432C964.523 472.576 978.859 475.648 995.584 475.648C1002.41 475.307 1009.41 474.283 1016.58 472.576C1023.74 470.528 1029.89 467.115 1035.01 462.336C1040.13 457.216 1042.69 449.878 1042.69 440.32C1042.69 431.787 1039.96 424.96 1034.5 419.84C1029.03 414.72 1021.87 410.624 1012.99 407.552C1004.12 404.139 994.56 401.067 984.32 398.336C973.397 395.264 962.304 391.851 951.04 388.096C940.117 384.342 930.219 379.563 921.344 373.76C912.469 367.616 905.131 359.766 899.328 350.208C893.867 340.651 891.136 328.875 891.136 314.88C891.136 298.838 895.573 285.014 904.448 273.408C913.664 261.803 925.44 252.758 939.776 246.272C954.453 239.787 970.325 236.544 987.392 236.544C997.291 236.544 1007.7 237.91 1018.62 240.64C1029.55 243.03 1040.13 246.955 1050.37 252.416C1060.61 257.878 1069.48 265.046 1076.99 273.92C1080.41 278.358 1082.28 283.648 1082.62 289.792C1083.31 295.936 1080.58 301.398 1074.43 306.176C1070.34 309.59 1065.39 311.126 1059.58 310.784C1053.78 310.443 1049 308.566 1045.25 305.152C1038.76 296.96 1030.4 290.646 1020.16 286.208C1009.92 281.43 998.315 279.04 985.344 279.04C978.859 279.04 972.032 280.064 964.864 282.112C958.037 283.819 952.235 287.062 947.456 291.84C942.677 296.619 940.288 303.616 940.288 312.832C940.288 321.366 943.019 328.192 948.48 333.312C954.283 338.432 961.792 342.699 971.008 346.112C980.224 349.526 990.293 352.598 1001.22 355.328C1011.8 358.059 1022.21 361.302 1032.45 365.056C1043.03 368.811 1052.42 373.76 1060.61 379.904C1069.14 385.707 1075.97 393.387 1081.09 402.944C1086.55 412.16 1089.28 423.936 1089.28 438.272C1089.28 454.998 1084.33 469.334 1074.43 481.28C1064.87 492.886 1052.59 501.76 1037.57 507.904C1022.89 514.048 1007.36 517.12 990.976 517.12C971.52 517.12 952.064 513.707 932.608 506.88C913.493 499.712 897.28 487.424 883.968 470.016ZM1315.35 464.896C1322.17 464.896 1327.81 467.115 1332.24 471.552C1337.02 475.99 1339.41 481.622 1339.41 488.448C1339.41 494.934 1337.02 500.566 1332.24 505.344C1327.81 509.782 1322.17 512 1315.35 512H1149.97C1142.8 512 1137 509.44 1132.56 504.32C1128.13 498.859 1126.08 493.568 1126.42 488.448C1126.76 484.352 1127.27 480.768 1127.96 477.696C1128.98 474.283 1131.2 470.528 1134.61 466.432L1271.32 285.184V291.328H1157.14C1150.31 291.328 1144.51 289.11 1139.73 284.672C1135.29 279.894 1133.08 274.262 1133.08 267.776C1133.08 260.95 1135.29 255.318 1139.73 250.88C1144.51 246.443 1150.31 244.224 1157.14 244.224H1314.84C1321.32 244.224 1326.78 246.784 1331.22 251.904C1336 256.683 1338.05 262.656 1337.36 269.824C1337.36 272.896 1336.85 275.968 1335.83 279.04C1335.15 281.771 1333.27 285.014 1330.2 288.768L1195.54 467.968L1193.49 464.896H1315.35ZM1554.16 153.6C1585.56 153.6 1609.28 161.28 1625.32 176.64C1641.71 192 1649.9 214.358 1649.9 243.712C1649.9 259.072 1646.15 273.067 1638.64 285.696C1631.47 297.984 1620.72 307.712 1606.38 314.88C1592.39 322.048 1574.81 325.803 1553.64 326.144L1554.67 307.2C1565.93 307.2 1578.05 308.736 1591.02 311.808C1604.33 314.88 1616.79 320.171 1628.4 327.68C1640 335.19 1649.56 345.43 1657.07 358.4C1664.58 371.03 1668.33 386.902 1668.33 406.016C1668.33 426.838 1664.92 444.246 1658.09 458.24C1651.27 471.894 1642.22 482.646 1630.96 490.496C1619.69 498.347 1607.23 503.979 1593.58 507.392C1580.27 510.464 1567.13 512 1554.16 512H1423.08C1415.92 512 1409.77 509.611 1404.65 504.832C1399.53 499.712 1396.97 493.398 1396.97 485.888V179.712C1396.97 172.203 1399.53 166.059 1404.65 161.28C1409.77 156.16 1415.92 153.6 1423.08 153.6H1554.16ZM1546.99 203.776H1446.12L1452.27 195.584V305.664L1446.64 300.032H1548.01C1560.3 299.691 1571.05 295.595 1580.27 287.744C1589.83 279.552 1594.6 267.606 1594.6 251.904C1594.6 235.862 1590.34 223.915 1581.8 216.064C1573.27 207.872 1561.67 203.776 1546.99 203.776ZM1550.57 350.208H1448.68L1452.27 346.624V467.456L1448.17 462.848H1553.64C1571.39 462.848 1585.73 458.24 1596.65 449.024C1607.57 439.467 1613.04 425.131 1613.04 406.016C1613.04 389.974 1609.79 378.027 1603.31 370.176C1596.82 362.326 1588.8 357.035 1579.24 354.304C1569.69 351.574 1560.13 350.208 1550.57 350.208ZM1983.89 377.344C1983.89 404.651 1977.91 428.886 1965.97 450.048C1954.02 470.87 1937.81 487.254 1917.33 499.2C1896.85 511.147 1873.81 517.12 1848.21 517.12C1822.61 517.12 1799.57 511.147 1779.09 499.2C1758.61 487.254 1742.22 470.87 1729.94 450.048C1717.99 428.886 1712.02 404.651 1712.02 377.344C1712.02 349.696 1717.99 325.462 1729.94 304.64C1742.22 283.478 1758.61 266.923 1779.09 254.976C1799.57 242.688 1822.61 236.544 1848.21 236.544C1873.81 236.544 1896.85 242.688 1917.33 254.976C1937.81 266.923 1954.02 283.478 1965.97 304.64C1977.91 325.462 1983.89 349.696 1983.89 377.344ZM1932.69 377.344C1932.69 358.571 1928.93 342.358 1921.42 328.704C1913.91 314.71 1903.67 303.787 1890.7 295.936C1878.07 287.744 1863.91 283.648 1848.21 283.648C1832.51 283.648 1818.17 287.744 1805.2 295.936C1792.23 303.787 1781.99 314.71 1774.48 328.704C1766.97 342.358 1763.22 358.571 1763.22 377.344C1763.22 395.435 1766.97 411.478 1774.48 425.472C1781.99 439.467 1792.23 450.39 1805.2 458.24C1818.17 466.091 1832.51 470.016 1848.21 470.016C1863.91 470.016 1878.07 466.091 1890.7 458.24C1903.67 450.39 1913.91 439.467 1921.42 425.472C1928.93 411.478 1932.69 395.435 1932.69 377.344ZM2041.36 241.152C2049.9 241.152 2056.89 244.736 2062.36 251.904L2236.95 472.064C2240.7 476.502 2242.58 481.622 2242.58 487.424C2242.58 494.251 2239.85 500.224 2234.39 505.344C2228.93 510.464 2222.95 513.024 2216.47 513.024C2208.28 513.024 2201.28 509.44 2195.48 502.272L2020.88 282.112C2017.13 277.675 2015.25 272.555 2015.25 266.752C2015.25 259.584 2017.81 253.611 2022.93 248.832C2028.39 243.712 2034.54 241.152 2041.36 241.152ZM2041.88 513.024C2036.07 513.024 2030.44 510.806 2024.98 506.368C2019.52 501.931 2016.79 496.47 2016.79 489.984C2016.79 484.182 2018.84 478.891 2022.93 474.112L2104.34 373.248L2130.45 415.232L2062.36 502.272C2056.89 509.44 2050.07 513.024 2041.88 513.024ZM2215.96 241.152C2223.12 241.152 2228.93 243.542 2233.36 248.32C2238.14 252.758 2240.53 258.048 2240.53 264.192C2240.53 266.923 2240.02 269.824 2239 272.896C2238.31 275.627 2236.78 278.187 2234.39 280.576L2154 381.44L2127.38 343.552L2195.48 252.928C2201.28 245.078 2208.11 241.152 2215.96 241.152Z" fill="white"/>
<path d="M12.4763 12.4768C29.1041 -4.15754 56.0635 -4.15775 72.6912 12.4768L255.716 195.578L438.735 12.4827C455.363 -4.15202 482.322 -4.15193 498.95 12.4827C500.896 14.4293 502.611 16.5196 504.101 18.7161C509.075 25.6834 512.002 34.2124 512.002 43.4251V469.421C512.002 492.936 492.939 511.999 469.424 511.999C461.026 511.999 453.198 509.567 446.601 505.37C443.807 503.654 441.167 501.588 438.747 499.167L426.908 487.323V310.103H426.845V144.857L315.929 255.819L315.936 255.825L255.721 316.065L255.715 316.058L255.698 316.074L195.484 255.834L195.501 255.819L85.3669 145.638V366L85.4001 365.966V486.445L76.7566 495.092C68.983 505.362 56.662 511.999 42.7888 511.999C27.3062 511.999 13.7547 503.735 6.30249 491.377C1.32499 483.299 -0.705421 473.92 0.210692 464.779V46.7796C-0.990342 34.53 3.09775 21.8594 12.4763 12.4768ZM387.72 327.639V448.118L283.427 343.782L343.64 283.541L387.72 327.639ZM227.999 343.784L124.589 447.24V326.761L167.785 283.545L227.999 343.784Z" fill="white"/>
</svg>
