<svg width="2254" height="640" viewBox="0 0 2254 640" fill="none" xmlns="http://www.w3.org/2000/svg">
<path d="M802.515 238.592C810.024 238.592 816.168 241.152 820.947 246.272C825.726 251.051 828.115 257.195 828.115 264.704V485.888C828.115 493.398 825.726 499.712 820.947 504.832C816.168 509.611 810.024 512 802.515 512C795.347 512 789.203 509.611 784.083 504.832C779.304 499.712 776.915 493.398 776.915 485.888V449.024L787.667 450.56C787.667 456.704 785.107 463.531 779.987 471.04C775.208 478.55 768.552 485.888 760.019 493.056C751.486 499.883 741.416 505.686 729.811 510.464C718.206 514.902 705.747 517.12 692.435 517.12C668.883 517.12 647.72 511.147 628.947 499.2C610.174 486.912 595.326 470.187 584.403 449.024C573.48 427.862 568.019 403.798 568.019 376.832C568.019 349.184 573.48 324.95 584.403 304.128C595.326 282.966 610.003 266.411 628.435 254.464C647.208 242.518 668.03 236.544 690.899 236.544C705.576 236.544 719.059 238.934 731.347 243.712C743.976 248.491 754.899 254.635 764.115 262.144C773.331 269.654 780.328 277.675 785.107 286.208C790.227 294.4 792.787 302.251 792.787 309.76L776.915 311.296V264.704C776.915 257.536 779.304 251.392 784.083 246.272C789.203 241.152 795.347 238.592 802.515 238.592ZM698.067 470.016C714.11 470.016 728.275 465.92 740.563 457.728C752.851 449.536 762.408 438.443 769.235 424.448C776.062 410.112 779.475 394.24 779.475 376.832C779.475 359.083 776.062 343.211 769.235 329.216C762.408 315.222 752.851 304.128 740.563 295.936C728.275 287.744 714.11 283.648 698.067 283.648C682.366 283.648 668.371 287.744 656.083 295.936C644.136 304.128 634.579 315.222 627.411 329.216C620.584 343.211 617.171 359.083 617.171 376.832C617.171 394.24 620.584 410.112 627.411 424.448C634.579 438.443 644.136 449.536 656.083 457.728C668.371 465.92 682.366 470.016 698.067 470.016ZM883.971 470.016C880.899 465.238 879.534 459.776 879.875 453.632C880.216 447.147 883.8 441.686 890.627 437.248C895.406 434.176 900.355 432.982 905.475 433.664C910.936 434.006 916.056 436.566 920.835 441.344C930.392 451.926 940.974 460.288 952.579 466.432C964.526 472.576 978.862 475.648 995.587 475.648C1002.41 475.307 1009.41 474.283 1016.58 472.576C1023.75 470.528 1029.89 467.115 1035.01 462.336C1040.13 457.216 1042.69 449.878 1042.69 440.32C1042.69 431.787 1039.96 424.96 1034.5 419.84C1029.04 414.72 1021.87 410.624 1012.99 407.552C1004.12 404.139 994.563 401.067 984.323 398.336C973.4 395.264 962.307 391.851 951.043 388.096C940.12 384.342 930.222 379.563 921.347 373.76C912.472 367.616 905.134 359.766 899.331 350.208C893.87 340.651 891.139 328.875 891.139 314.88C891.139 298.838 895.576 285.014 904.451 273.408C913.667 261.803 925.443 252.758 939.779 246.272C954.456 239.787 970.328 236.544 987.395 236.544C997.294 236.544 1007.7 237.91 1018.63 240.64C1029.55 243.03 1040.13 246.955 1050.37 252.416C1060.61 257.878 1069.49 265.046 1076.99 273.92C1080.41 278.358 1082.29 283.648 1082.63 289.792C1083.31 295.936 1080.58 301.398 1074.43 306.176C1070.34 309.59 1065.39 311.126 1059.59 310.784C1053.78 310.443 1049.01 308.566 1045.25 305.152C1038.77 296.96 1030.4 290.646 1020.16 286.208C1009.92 281.43 998.318 279.04 985.347 279.04C978.862 279.04 972.035 280.064 964.867 282.112C958.04 283.819 952.238 287.062 947.459 291.84C942.68 296.619 940.291 303.616 940.291 312.832C940.291 321.366 943.022 328.192 948.483 333.312C954.286 338.432 961.795 342.699 971.011 346.112C980.227 349.526 990.296 352.598 1001.22 355.328C1011.8 358.059 1022.21 361.302 1032.45 365.056C1043.03 368.811 1052.42 373.76 1060.61 379.904C1069.14 385.707 1075.97 393.387 1081.09 402.944C1086.55 412.16 1089.28 423.936 1089.28 438.272C1089.28 454.998 1084.33 469.334 1074.43 481.28C1064.88 492.886 1052.59 501.76 1037.57 507.904C1022.89 514.048 1007.36 517.12 990.979 517.12C971.523 517.12 952.067 513.707 932.611 506.88C913.496 499.712 897.283 487.424 883.971 470.016ZM1315.35 464.896C1322.18 464.896 1327.81 467.115 1332.25 471.552C1337.03 475.99 1339.41 481.622 1339.41 488.448C1339.41 494.934 1337.03 500.566 1332.25 505.344C1327.81 509.782 1322.18 512 1315.35 512H1149.97C1142.81 512 1137 509.44 1132.57 504.32C1128.13 498.859 1126.08 493.568 1126.42 488.448C1126.76 484.352 1127.28 480.768 1127.96 477.696C1128.98 474.283 1131.2 470.528 1134.61 466.432L1271.32 285.184V291.328H1157.14C1150.32 291.328 1144.51 289.11 1139.73 284.672C1135.3 279.894 1133.08 274.262 1133.08 267.776C1133.08 260.95 1135.3 255.318 1139.73 250.88C1144.51 246.443 1150.32 244.224 1157.14 244.224H1314.84C1321.32 244.224 1326.79 246.784 1331.22 251.904C1336 256.683 1338.05 262.656 1337.37 269.824C1337.37 272.896 1336.85 275.968 1335.83 279.04C1335.15 281.771 1333.27 285.014 1330.2 288.768L1195.54 467.968L1193.49 464.896H1315.35ZM1554.16 153.6C1585.56 153.6 1609.28 161.28 1625.33 176.64C1641.71 192 1649.9 214.358 1649.9 243.712C1649.9 259.072 1646.15 273.067 1638.64 285.696C1631.47 297.984 1620.72 307.712 1606.38 314.88C1592.39 322.048 1574.81 325.803 1553.65 326.144L1554.67 307.2C1565.93 307.2 1578.05 308.736 1591.02 311.808C1604.33 314.88 1616.79 320.171 1628.4 327.68C1640 335.19 1649.56 345.43 1657.07 358.4C1664.58 371.03 1668.33 386.902 1668.33 406.016C1668.33 426.838 1664.92 444.246 1658.09 458.24C1651.27 471.894 1642.22 482.646 1630.96 490.496C1619.69 498.347 1607.24 503.979 1593.58 507.392C1580.27 510.464 1567.13 512 1554.16 512H1423.09C1415.92 512 1409.77 509.611 1404.65 504.832C1399.53 499.712 1396.97 493.398 1396.97 485.888V179.712C1396.97 172.203 1399.53 166.059 1404.65 161.28C1409.77 156.16 1415.92 153.6 1423.09 153.6H1554.16ZM1546.99 203.776H1446.13L1452.27 195.584V305.664L1446.64 300.032H1548.01C1560.3 299.691 1571.05 295.595 1580.27 287.744C1589.83 279.552 1594.61 267.606 1594.61 251.904C1594.61 235.862 1590.34 223.915 1581.81 216.064C1573.27 207.872 1561.67 203.776 1546.99 203.776ZM1550.57 350.208H1448.69L1452.27 346.624V467.456L1448.17 462.848H1553.65C1571.4 462.848 1585.73 458.24 1596.65 449.024C1607.58 439.467 1613.04 425.131 1613.04 406.016C1613.04 389.974 1609.8 378.027 1603.31 370.176C1596.83 362.326 1588.8 357.035 1579.25 354.304C1569.69 351.574 1560.13 350.208 1550.57 350.208ZM1983.89 377.344C1983.89 404.651 1977.92 428.886 1965.97 450.048C1954.02 470.87 1937.81 487.254 1917.33 499.2C1896.85 511.147 1873.81 517.12 1848.21 517.12C1822.61 517.12 1799.57 511.147 1779.09 499.2C1758.61 487.254 1742.23 470.87 1729.94 450.048C1717.99 428.886 1712.02 404.651 1712.02 377.344C1712.02 349.696 1717.99 325.462 1729.94 304.64C1742.23 283.478 1758.61 266.923 1779.09 254.976C1799.57 242.688 1822.61 236.544 1848.21 236.544C1873.81 236.544 1896.85 242.688 1917.33 254.976C1937.81 266.923 1954.02 283.478 1965.97 304.64C1977.92 325.462 1983.89 349.696 1983.89 377.344ZM1932.69 377.344C1932.69 358.571 1928.94 342.358 1921.43 328.704C1913.92 314.71 1903.68 303.787 1890.71 295.936C1878.08 287.744 1863.91 283.648 1848.21 283.648C1832.51 283.648 1818.17 287.744 1805.2 295.936C1792.23 303.787 1781.99 314.71 1774.48 328.704C1766.97 342.358 1763.22 358.571 1763.22 377.344C1763.22 395.435 1766.97 411.478 1774.48 425.472C1781.99 439.467 1792.23 450.39 1805.2 458.24C1818.17 466.091 1832.51 470.016 1848.21 470.016C1863.91 470.016 1878.08 466.091 1890.71 458.24C1903.68 450.39 1913.92 439.467 1921.43 425.472C1928.94 411.478 1932.69 395.435 1932.69 377.344ZM2041.37 241.152C2049.9 241.152 2056.9 244.736 2062.36 251.904L2236.95 472.064C2240.71 476.502 2242.58 481.622 2242.58 487.424C2242.58 494.251 2239.85 500.224 2234.39 505.344C2228.93 510.464 2222.96 513.024 2216.47 513.024C2208.28 513.024 2201.28 509.44 2195.48 502.272L2020.89 282.112C2017.13 277.675 2015.25 272.555 2015.25 266.752C2015.25 259.584 2017.81 253.611 2022.93 248.832C2028.4 243.712 2034.54 241.152 2041.37 241.152ZM2041.88 513.024C2036.08 513.024 2030.44 510.806 2024.98 506.368C2019.52 501.931 2016.79 496.47 2016.79 489.984C2016.79 484.182 2018.84 478.891 2022.93 474.112L2104.34 373.248L2130.45 415.232L2062.36 502.272C2056.9 509.44 2050.07 513.024 2041.88 513.024ZM2215.96 241.152C2223.13 241.152 2228.93 243.542 2233.37 248.32C2238.15 252.758 2240.53 258.048 2240.53 264.192C2240.53 266.923 2240.02 269.824 2239 272.896C2238.32 275.627 2236.78 278.187 2234.39 280.576L2154.01 381.44L2127.38 343.552L2195.48 252.928C2201.28 245.078 2208.11 241.152 2215.96 241.152Z" fill="#6741D9"/>
<path d="M12.4791 12.4775C29.1068 -4.15724 56.0662 -4.15716 72.694 12.4775L255.718 195.579L438.739 12.4833C455.367 -4.15138 482.326 -4.15141 498.954 12.4833C500.904 14.435 502.624 16.5306 504.117 18.7333C509.083 25.6976 512.005 34.2204 512.005 43.4257V469.421C512.005 492.936 492.942 511.999 469.426 511.999C461.037 511.999 453.216 509.571 446.624 505.382C443.823 503.663 441.175 501.593 438.75 499.167L426.912 487.323V310.102H426.849V144.857L315.933 255.819L315.939 255.825L255.724 316.064L255.718 316.059L255.702 316.074L195.488 255.835L195.505 255.819L85.3707 145.639V366L85.4039 365.966V486.445L76.7584 495.095C68.9847 505.363 56.6646 511.999 42.7926 511.999C27.3222 511.999 13.7798 503.747 6.32384 491.406C1.33182 483.319 -0.704948 473.924 0.214466 464.769V46.7792C-0.986454 34.5301 3.10089 21.8599 12.4791 12.4775ZM387.723 327.639V448.118L283.429 343.781L343.644 283.542L387.723 327.639ZM228.004 343.784L124.591 447.241V326.762L167.789 283.545L228.004 343.784Z" fill="#6741D9"/>
</svg>
